<svg width="227" height="187" viewBox="0 0 227 187" fill="none" xmlns="http://www.w3.org/2000/svg">
<g clip-path="url(#clip0_301_183)">
<path d="M63.0156 109.784H18.2793V151.58H63.0156V109.784Z" fill="#3F3D56"/>
<path d="M81.295 166.112H0V95.2513H81.295V166.112ZM0.481035 165.632H80.814V95.7318H0.481035V165.632Z" fill="#3F3D56"/>
<path d="M192.756 68.3994C185.983 68.3994 179.363 66.3936 173.731 62.6357C168.1 58.8778 163.711 53.5365 161.119 47.2873C158.527 41.0382 157.849 34.1617 159.17 27.5277C160.492 20.8936 163.753 14.7998 168.542 10.0169C173.331 5.23395 179.433 1.97675 186.075 0.657151C192.718 -0.66245 199.603 0.0148204 205.861 2.60331C212.118 5.19181 217.466 9.57527 221.229 15.1994C224.992 20.8235 227 27.4356 227 34.1997C226.99 43.2669 223.379 51.9597 216.959 58.3712C210.539 64.7827 201.835 68.3891 192.756 68.3994V68.3994ZM192.756 0.506677C186.084 0.506677 179.561 2.48274 174.013 6.18497C168.465 9.88721 164.141 15.1493 161.588 21.3059C159.034 27.4625 158.366 34.2371 159.668 40.7729C160.97 47.3087 164.183 53.3122 168.901 58.0242C173.619 62.7363 179.63 65.9452 186.174 67.2453C192.719 68.5453 199.502 67.8781 205.667 65.328C211.831 62.7778 217.1 58.4593 220.807 52.9185C224.514 47.3777 226.493 40.8635 226.493 34.1997C226.483 25.2668 222.925 16.7027 216.6 10.3863C210.276 4.06977 201.701 0.516747 192.756 0.506687V0.506677Z" fill="#3F3D56"/>
<path d="M191.741 50.6662C200.847 50.6662 208.229 43.2939 208.229 34.1997C208.229 25.1055 200.847 17.7332 191.741 17.7332C182.636 17.7332 175.254 25.1055 175.254 34.1997C175.254 43.2939 182.636 50.6662 191.741 50.6662Z" fill="#3F3D56"/>
<path d="M219.221 84.1306L209.427 89.778L215.082 99.5594L224.876 93.9121L219.221 84.1306Z" fill="#FF6584"/>
<path d="M69.7487 29.3121L59.9546 34.9595L65.6092 44.7409L75.4033 39.0936L69.7487 29.3121Z" fill="#3F3D56"/>
<path d="M205.576 145.763L195.782 151.41L201.437 161.191L211.231 155.544L205.576 145.763Z" fill="#E5E5E5"/>
<path d="M44.7362 126.598H36.5586V134.765H44.7362V126.598Z" fill="#F6CF9F"/>
<path d="M191.741 38.253C193.983 38.253 195.8 36.4382 195.8 34.1997C195.8 31.9611 193.983 30.1464 191.741 30.1464C189.5 30.1464 187.683 31.9611 187.683 34.1997C187.683 36.4382 189.5 38.253 191.741 38.253Z" fill="#F6CF9F"/>
<path d="M177.866 89.2339L156.857 101.348L168.986 122.33L189.996 110.216L177.866 89.2339Z" fill="#F6CF9F"/>
<path d="M185.755 186.381H55.5095V187H185.755V186.381Z" fill="#CBCBCB"/>
<path d="M104.938 102.837C104.56 102.352 104.294 101.791 104.157 101.193C104.02 100.595 104.017 99.9736 104.146 99.3737C104.276 98.7738 104.535 98.2096 104.907 97.7207C105.278 97.2319 105.753 96.8303 106.296 96.5444L105.419 86.9918L111.101 85.0432L112.151 98.5507C112.571 99.4947 112.631 100.56 112.317 101.545C112.004 102.529 111.34 103.365 110.45 103.893C109.561 104.422 108.509 104.606 107.493 104.411C106.477 104.216 105.568 103.656 104.938 102.837V102.837Z" fill="#FFB8B8"/>
<path d="M111.038 48.0103C111.038 48.0103 114.938 39.8372 118.403 42.7122C121.868 45.5872 113.652 69.7535 113.652 69.7535L112.403 93.2136L105.817 92.5562L103.955 69.6997L111.038 48.0103Z" fill="#CCCCCC"/>
<path d="M58.7317 168.928L63.6203 172.88L81.21 155.93L73.995 150.097L58.7317 168.928Z" fill="#FFB8B8"/>
<path d="M58.7767 166.326L68.404 174.109L68.4044 174.11C70.0314 175.425 71.0686 177.332 71.2877 179.412C71.5068 181.491 70.89 183.572 69.573 185.197L69.4116 185.396L53.6489 172.653L58.7767 166.326Z" fill="#2F2E41"/>
<path d="M126.671 179.899L132.96 179.899L135.952 155.671L126.67 155.671L126.671 179.899Z" fill="#FFB8B8"/>
<path d="M125.066 177.848L137.453 177.848H137.453C139.547 177.848 141.554 178.678 143.034 180.157C144.515 181.635 145.346 183.64 145.347 185.731V185.987L125.067 185.988L125.066 177.848Z" fill="#2F2E41"/>
<path d="M137.707 66.316C137.707 66.316 149.506 80.6618 146.941 95.0076C144.376 109.353 142.324 120.113 142.324 120.113L138.22 152.391C138.22 152.391 139.759 161.181 137.707 163.447C137.707 163.447 140.785 168.786 135.142 170.835C129.499 172.885 126.454 170.127 126.454 170.127C126.454 170.127 122.317 164.175 124.882 162.638L125.962 99.2929L84.8668 152.903C84.8668 152.903 84.1114 159.424 78.8459 159.494L72.5545 164.175L65.3723 160.076L68.9634 155.465C68.9634 155.465 66.9113 150.341 71.5284 149.317L98.2051 114.477L104.874 96.5447C104.874 96.5447 108.465 82.7112 118.213 77.0754V71.0785L137.707 66.316Z" fill="#2F2E41"/>
<path d="M117.443 41.4671C118.996 39.6338 121.171 38.4351 123.552 38.0993C125.933 37.7635 128.354 38.3142 130.355 39.6463L130.781 39.9301C135.335 45.0802 138.395 51.3734 139.633 58.1319L141.555 68.6216L117.443 73.8379L111.79 54.3685C111.073 51.8973 111.246 49.2532 112.278 46.896C113.311 44.5388 115.139 42.6178 117.443 41.4671V41.4671Z" fill="#CCCCCC"/>
<path d="M157.057 105.067C156.388 104.849 155.776 104.487 155.263 104.007C154.75 103.526 154.348 102.94 154.086 102.288C153.825 101.636 153.709 100.934 153.748 100.233C153.788 99.5319 153.98 98.8477 154.313 98.2288L147.357 89.7273L151.499 84.2458L161.153 96.3895C162.157 97.0162 162.896 97.9891 163.23 99.1236C163.563 100.258 163.469 101.476 162.964 102.545C162.459 103.615 161.579 104.462 160.49 104.927C159.401 105.392 158.18 105.442 157.057 105.067V105.067Z" fill="#FFB8B8"/>
<path d="M127.703 49.1523C127.703 49.1523 126.164 38.9053 131.294 39.4177C136.424 39.9301 144.12 68.1093 144.12 68.1093L157.971 91.165L151.302 94.7514L134.885 74.2575L127.703 49.1523Z" fill="#CCCCCC"/>
<path d="M137.098 34.1717H112.668C112.166 34.1711 111.684 33.9715 111.329 33.6166C110.973 33.2617 110.774 32.7806 110.773 32.2787V21.7625C110.773 18.0251 112.26 14.4408 114.906 11.798C117.552 9.15532 121.141 7.67065 124.883 7.67065C128.625 7.67065 132.214 9.15532 134.86 11.798C137.506 14.4408 138.993 18.0251 138.993 21.7625V32.2787C138.992 32.7806 138.793 33.2617 138.437 33.6166C138.082 33.9715 137.6 34.1711 137.098 34.1717V34.1717Z" fill="#2F2E41"/>
<path d="M136.86 28.5509C139.6 23.5442 137.758 17.2667 132.745 14.5298C127.731 11.7928 121.446 13.6329 118.705 18.6396C115.965 23.6464 117.807 29.9239 122.82 32.6608C127.834 35.3977 134.119 33.5577 136.86 28.5509Z" fill="#FFB8B8"/>
<path d="M142.331 22.8141H129.312L129.179 20.6722L128.511 22.8141H126.506L126.242 18.569L124.919 22.8141H121.04V22.6038C121.04 16.4571 125.404 11.4565 130.768 11.4565H132.603C137.967 11.4565 142.331 16.4571 142.331 22.6038L142.331 22.8141Z" fill="#2F2E41"/>
<path d="M129.851 36.1347C129.692 36.1346 129.533 36.1224 129.376 36.0981L113.88 33.7144V17.5951C113.88 16.7798 114.04 15.9724 114.353 15.2192C114.665 14.4659 115.123 13.7814 115.7 13.2049C116.278 12.6284 116.963 12.171 117.717 11.859C118.472 11.547 119.28 11.3864 120.096 11.3864H130.938L130.515 11.8157C124.64 17.7902 129.066 27.4778 132.228 32.7207C132.46 33.0976 132.565 33.5389 132.527 33.9797C132.489 34.4205 132.311 34.8376 132.018 35.1695C131.749 35.4782 131.415 35.7245 131.041 35.8912C130.667 36.058 130.261 36.1411 129.851 36.1347Z" fill="#2F2E41"/>
</g>
<defs>
<clipPath id="clip0_301_183">
<rect width="227" height="187" fill="white"/>
</clipPath>
</defs>
</svg>
