<svg width="17" height="17" viewBox="0 0 17 17" fill="none" xmlns="http://www.w3.org/2000/svg">
<path d="M3 7.99643H12.9748L9.15525 4.35843C8.95525 4.16793 8.9475 3.85143 9.138 3.65143C9.32825 3.45168 9.64475 3.44368 9.845 3.63418L14.207 7.78918C14.3958 7.97818 14.5 8.22918 14.5 8.49643C14.5 8.76343 14.3958 9.01468 14.1983 9.21193L9.84475 13.3584C9.748 13.4507 9.624 13.4964 9.5 13.4964C9.368 13.4964 9.236 13.4444 9.13775 13.3412C8.94725 13.1412 8.955 12.8249 9.155 12.6344L12.9905 8.99643H3C2.724 8.99643 2.5 8.77243 2.5 8.49643C2.5 8.22043 2.724 7.99643 3 7.99643V7.99643Z" fill="white"/>
</svg>
