<svg width="16" height="17" viewBox="0 0 16 17" fill="none" xmlns="http://www.w3.org/2000/svg">
<g clip-path="url(#clip0_301_81)">
<path d="M14.7162 10.8408C13.7366 10.8408 12.7747 10.6876 11.8633 10.3864C11.4167 10.234 10.8676 10.3738 10.595 10.6537L8.796 12.0118C6.70963 10.8981 5.42446 9.61337 4.32596 7.54267L5.64408 5.7905C5.98654 5.4485 6.10938 4.94892 5.96221 4.48017C5.65971 3.56392 5.50604 2.60254 5.50604 1.62254C5.50608 0.914581 4.93013 0.338623 4.22221 0.338623H1.28387C0.575958 0.338623 0 0.914581 0 1.6225C0 9.73708 6.60158 16.3386 14.7162 16.3386C15.4241 16.3386 16 15.7627 16 15.0547V12.1246C16 11.4167 15.424 10.8408 14.7162 10.8408Z" fill="#F9F9F9"/>
</g>
<defs>
<clipPath id="clip0_301_81">
<rect width="16" height="16" fill="white" transform="translate(0 0.338623)"/>
</clipPath>
</defs>
</svg>
