<svg width="16" height="17" viewBox="0 0 16 17" fill="none" xmlns="http://www.w3.org/2000/svg">
<path fill-rule="evenodd" clip-rule="evenodd" d="M13.1382 0.533691C14.5028 0.679199 15.5804 1.75708 15.7261 3.12158C16.0913 6.5437 16.0913 9.97583 15.7261 13.3978C15.5804 14.7625 14.5028 15.8402 13.1382 15.9858C9.71606 16.3511 6.28381 16.3511 2.86182 15.9858C1.49731 15.8402 0.419556 14.7625 0.273926 13.3978C-0.0913086 9.97583 -0.0913086 6.54358 0.273926 3.12158C0.419556 1.75708 1.49731 0.679321 2.86194 0.533691C6.28394 0.168457 9.71606 0.168457 13.1382 0.533691ZM1.91911 5.62504L1.91912 5.62503C1.94466 5.42951 1.97019 5.23401 2.00532 5.04025C2.29745 3.43021 3.43729 2.33477 5.06708 2.27863C7.0294 2.21121 8.99765 2.20764 10.9597 2.27833C12.7335 2.34219 14.0182 3.65565 14.0736 5.43009C14.1325 7.31429 14.1325 9.20309 14.0736 11.0873C14.0182 12.8617 12.734 14.175 10.9598 14.239C8.9978 14.3099 7.0291 14.3117 5.06723 14.238C3.29309 14.1713 2.06666 12.8549 1.948 11.0778C1.941 10.9728 1.92339 10.8684 1.90579 10.764L1.90579 10.764C1.89762 10.7156 1.88946 10.6672 1.88235 10.6187V5.8988C1.89526 5.80766 1.90718 5.71636 1.91911 5.62506L1.91911 5.62505L1.91911 5.62504ZM8.00172 13.1874C8.27954 13.1874 8.55744 13.19 8.83535 13.1926H8.83536H8.83537H8.83537C9.45564 13.1983 10.0759 13.2041 10.6952 13.1812C12.1011 13.1291 12.9659 12.2899 12.9988 10.8853C13.0395 9.13507 13.0395 7.38246 12.9988 5.63207C12.9659 4.22773 12.1006 3.36902 10.6952 3.33917C8.91136 3.30145 7.12563 3.30174 5.34183 3.33917C3.94714 3.36843 3.07982 4.20976 3.04195 5.59866C2.99383 7.37102 2.99383 9.1465 3.04195 10.9189C3.07982 12.3076 3.94714 13.1295 5.34198 13.1812C5.95358 13.204 6.56623 13.1982 7.17887 13.1925H7.17888H7.17889H7.1789C7.45321 13.19 7.72751 13.1874 8.00172 13.1874ZM8.00016 5.14188C6.27829 5.14188 4.88226 6.53776 4.88226 8.25963C4.88226 9.98165 6.27829 11.3775 8.00016 11.3775C9.72218 11.3775 11.1181 9.98165 11.1181 8.25963C11.1181 6.53776 9.72218 5.14188 8.00016 5.14188ZM8.00016 10.3041C6.87101 10.3041 5.95572 9.38878 5.95572 8.25963C5.95572 7.13048 6.87101 6.21519 8.00016 6.21519C9.12931 6.21519 10.0446 7.13048 10.0446 8.25963C10.0446 9.38878 9.12931 10.3041 8.00016 10.3041ZM11.3002 5.74143C11.7098 5.74143 12.0419 5.40936 12.0419 4.99975C12.0419 4.59 11.7098 4.25793 11.3002 4.25793C10.8906 4.25793 10.5584 4.59 10.5584 4.99975C10.5584 5.40936 10.8906 5.74143 11.3002 5.74143Z" fill="white"/>
</svg>
