<svg width="14" height="21" viewBox="0 0 14 21" fill="none" xmlns="http://www.w3.org/2000/svg">
<path d="M6.95191 0.5C3.11865 0.5 0 3.61865 0 7.4519C0 12.2699 6.95874 20.5 6.95874 20.5C6.95874 20.5 13.9038 12.033 13.9038 7.4519C13.9038 3.61865 10.7853 0.5 6.95191 0.5ZM9.04944 9.48743C8.47107 10.0657 7.71155 10.3549 6.95191 10.3549C6.19238 10.3549 5.43262 10.0657 4.85449 9.48743C3.69788 8.33093 3.69788 6.4491 4.85449 5.29248C5.41455 4.73218 6.15955 4.42358 6.95191 4.42358C7.74426 4.42358 8.48914 4.7323 9.04944 5.29248C10.2061 6.4491 10.2061 8.33093 9.04944 9.48743Z" fill="#F9F9F9"/>
</svg>
