<svg width="17" height="18" viewBox="0 0 17 18" fill="none" xmlns="http://www.w3.org/2000/svg">
<path d="M7.51466 4.01734C7.51466 6.09209 5.83232 7.77443 3.75757 7.77443C1.68234 7.77443 0 6.09209 0 4.01734C0 1.94211 1.68234 0.259766 3.75757 0.259766C5.83232 0.259766 7.51466 1.94211 7.51466 4.01734Z" fill="white"/>
<path d="M16.9185 12.605C16.9185 15.1299 14.8716 17.1763 12.3472 17.1763C9.8222 17.1763 7.77539 15.1299 7.77539 12.605C7.77539 10.08 9.8222 8.03418 12.3472 8.03418C14.8716 8.03418 16.9185 10.08 16.9185 12.605Z" fill="white"/>
<path d="M15.289 4.01733C15.289 5.64235 13.9717 6.95919 12.3467 6.95919C10.7221 6.95919 9.4043 5.64235 9.4043 4.01733C9.4043 2.39234 10.7221 1.07495 12.3467 1.07495C13.9717 1.07495 15.289 2.39234 15.289 4.01733Z" fill="white"/>
<path d="M5.88594 12.605C5.88594 13.7797 4.93306 14.7321 3.75828 14.7321C2.58348 14.7321 1.6311 13.7797 1.6311 12.605C1.6311 11.4292 2.58348 10.4773 3.75828 10.4773C4.93306 10.4773 5.88594 11.4292 5.88594 12.605Z" fill="white"/>
</svg>
