<svg width="20" height="12" viewBox="0 0 20 12" fill="none" xmlns="http://www.w3.org/2000/svg">
<path d="M19.9271 1.0469C19.9271 1.0469 19.7817 0.649584 18.8777 0.758846L15.8855 0.778713C15.6569 0.748914 15.4907 0.83831 15.4907 0.83831C15.4907 0.83831 15.314 0.927707 15.2309 1.14623C14.7426 2.34812 14.1192 3.38115 14.1192 3.38115C12.7893 5.54654 12.2491 5.66573 12.0309 5.52667C11.5218 5.21875 11.6568 4.27512 11.6568 3.59968C11.6568 1.49389 11.9893 0.619785 11.0023 0.391326C10.6802 0.321795 10.4412 0.272131 9.59965 0.262198C8.5295 0.252265 7.62559 0.262198 7.11649 0.50059C6.77363 0.659517 6.51388 1.0171 6.66973 1.03697C6.86714 1.06677 7.3139 1.15616 7.55286 1.46409C7.55286 1.46409 7.81261 1.87134 7.85417 2.76531C7.96845 5.23861 7.43857 5.54654 7.43857 5.54654C7.03337 5.75513 6.32687 5.40747 5.28789 3.36128C5.28789 3.36128 4.68528 2.34812 4.21774 1.23563C4.13462 1.02704 3.96838 0.917774 3.96838 0.917774C3.96838 0.917774 3.78136 0.778713 3.51123 0.73898L0.664424 0.758846C0.228052 0.758846 0.0722054 0.947572 0.0722054 0.947572C0.0722054 0.947572 -0.0836416 1.1065 0.0618156 1.43429C2.28523 6.43057 4.82034 8.93368 4.82034 8.93368C4.82034 8.93368 7.13727 11.2481 9.76589 11.0891H10.9607C11.3244 11.0593 11.5114 10.8706 11.5114 10.8706C11.5114 10.8706 11.6776 10.6918 11.6672 10.364C11.6464 8.83435 12.3945 8.60589 12.3945 8.60589C13.1218 8.38737 14.0569 10.0859 15.0543 10.7415C15.0543 10.7415 15.8128 11.2381 16.3842 11.1289L19.044 11.0891C20.4466 11.0792 19.7817 9.96671 19.7817 9.96671C19.7297 9.87731 19.3972 9.19194 17.7972 7.77152C16.1348 6.29151 16.353 6.5299 18.3686 3.9672C19.5946 2.40772 20.083 1.45415 19.9271 1.0469Z" fill="white"/>
</svg>
